<svg xmlns="http://www.w3.org/2000/svg" xmlns:xlink="http://www.w3.org/1999/xlink" data-name="Layer 1" width="1028.530029296875" height="752.52001953125" style="" viewBox="0 0 1028 752" style="enable-background:new 0 0 1028 752;"><rect id="backgroundrect" width="100%" height="100%" x="0" y="0" fill="none" stroke="none"/><defs><linearGradient id="b417a2e5-779f-434a-8a9b-5b809751130b" x1="0.5" y1="1" x2="0.5" y2="0"><stop offset="0" stop-color="gray" stop-opacity="0.25"/><stop offset="0.54" stop-color="gray" stop-opacity="0.12"/><stop offset="1" stop-color="gray" stop-opacity="0.1"/></linearGradient><linearGradient id="04db0182-19cc-4c2e-a103-750e5424fcaf" x1="579.6400146484375" y1="682.9199829101562" x2="579.6400146484375" y2="218.05999755859375" xlink:href="#b417a2e5-779f-434a-8a9b-5b809751130b"/><linearGradient id="497b2842-48f9-46b6-a092-cc1e43f49418" x1="448.9800109863281" y1="716.2999877929688" x2="448.9800109863281" y2="571.1699829101562" xlink:href="#b417a2e5-779f-434a-8a9b-5b809751130b"/><linearGradient id="fadd9628-c3f0-4493-ac03-d18d51c12264" x1="533.6500244140625" y1="716.2999877929688" x2="533.6500244140625" y2="571.1699829101562" xlink:href="#b417a2e5-779f-434a-8a9b-5b809751130b"/></defs><title>artificial_intelligence</title><g class="currentLayer" style=""><title>Layer 1</title><ellipse cx="512.260009765625" cy="706.4299926757812" rx="256" ry="43" fill="#dee3f3" opacity="0.5" id="svg_1"/><g opacity="0.45" id="svg_2" class="" fill="#b6b6b6" fill-opacity="1"><path d="M449.3414251804352,258.97000213623045 a11.13,11.13 0 0 0 0.1,1.44 A11.1,11.1 0 0 1 449.3414251804352,258.97000213623045 z" fill="#b6b6b6" id="svg_3" fill-opacity="1"/><path d="M578.2614251804351,228.08000213623046 c0,0.13 0,0.25 0.06000000000000002,0.3800000000000001 C578.3014251804352,228.33000213623046 578.2814251804352,228.21000213623046 578.2614251804351,228.08000213623046 z" fill="#b6b6b6" id="svg_4" fill-opacity="1"/><path d="M577.9914251804352,226.81000213623048 c0,0.13 0.07,0.27 0.1,0.4 C578.0614251804352,227.07000213623047 578.0314251804352,226.94000213623048 577.9914251804352,226.81000213623048 z" fill="#b6b6b6" id="svg_5" fill-opacity="1"/><path d="M578.1214251804352,261.3800021362305 c0,0.22000000000000006 -0.11000000000000003,0.4400000000000001 -0.17,0.6500000000000002 C578.0214251804351,261.82000213623047 578.0714251804352,261.60000213623044 578.1214251804352,261.3800021362305 z" fill="#b6b6b6" id="svg_6" fill-opacity="1"/><path d="M578.3014251804352,260.33000213623046 c0,0.23 -0.06000000000000002,0.4700000000000001 -0.11000000000000003,0.7000000000000002 C578.2414251804352,260.8000021362305 578.2814251804352,260.5600021362305 578.3014251804352,260.33000213623046 z" fill="#b6b6b6" id="svg_7" fill-opacity="1"/><path d="M455.3014251804352,268.78000213623045 a11.13,11.13 0 0 1 -2.37,-1.6700000000000004 A11.09,11.09 0 0 0 455.3014251804352,268.78000213623045 z" fill="#b6b6b6" id="svg_8" fill-opacity="1"/><path d="M452.8414251804352,267.04000213623044 a11.15,11.15 0 0 1 -0.9400000000000002,-1 A11.11,11.11 0 0 0 452.8414251804352,267.04000213623044 z" fill="#b6b6b6" id="svg_9" fill-opacity="1"/><path d="M643.0914251804352,478.4300021362304 a11,11 0 0 0 -0.4700000000000001,-1.29 A11,11 0 0 1 643.0914251804352,478.4300021362304 z" fill="#b6b6b6" id="svg_10" fill-opacity="1"/><path d="M637.5814251804352,471.77000213623046 a11.11,11.11 0 0 1 1.26,0.77 A11.05,11.05 0 0 0 637.5814251804352,471.77000213623046 z" fill="#b6b6b6" id="svg_11" fill-opacity="1"/><path d="M640.0614251804352,473.53000213623045 a11.13,11.13 0 0 1 1.77,2.14 A11.11,11.11 0 0 0 640.0614251804352,473.53000213623045 z" fill="#b6b6b6" id="svg_12" fill-opacity="1"/><path d="M638.8414251804352,472.5600021362304 a11.18,11.18 0 0 1 1.05,0.8500000000000002 A11.11,11.11 0 0 0 638.8414251804352,472.5600021362304 z" fill="#b6b6b6" id="svg_13" fill-opacity="1"/><path d="M642.5214251804351,476.9500021362305 a11,11 0 0 0 -0.55,-1 A11,11 0 0 1 642.5214251804351,476.9500021362305 z" fill="#b6b6b6" id="svg_14" fill-opacity="1"/><path d="M643.3914251804351,479.80000213623043 a11,11 0 0 0 -0.24000000000000005,-1.09 A11,11 0 0 1 643.3914251804351,479.80000213623043 z" fill="#b6b6b6" id="svg_15" fill-opacity="1"/><path d="M977.0414251804352,419.14000213623046 h-63.65 a11.06,11.06 0 0 0 4.76,-9.09 V380.83000213623046 a11.07,11.07 0 0 0 -11.07,-11.07 H833.8414251804352 a11.08,11.08 0 0 0 7.71,-10.55 V329.9800021362305 a11.06,11.06 0 0 0 -4.76,-9.09 h70.32 a11.07,11.07 0 0 0 11.07,-11.07 V280.59000213623045 a11.07,11.07 0 0 0 -11.07,-11.07 H828.8414251804352 a11.08,11.08 0 0 0 7.71,-10.55 V229.7400021362305 a11.06,11.06 0 0 0 -4.76,-9.09 h75.33 a11.07,11.07 0 0 0 11.07,-11.07 V180.35000213623047 A11.07,11.07 0 0 0 907.0714251804352,169.26000213623047 H867.6414251804351 a11.08,11.08 0 0 0 7.71,-10.55 V129.51000213623047 a11.07,11.07 0 0 0 -11.07,-11.07 H757.3714251804352 a11.07,11.07 0 0 0 -11.07,11.07 a11.07,11.07 0 0 0 -11.07,-11.07 H628.3114251804352 a11.07,11.07 0 0 0 -10,6.41 a11.1,11.1 0 0 1 0.21000000000000005,2.16 V156.26000213623047 a11,11 0 0 1 -1,4.65 a11.05,11.05 0 0 0 3.85,6.42 h27.46 a11,11 0 0 1 7,2.51 h12 a11.08,11.08 0 0 0 -7.71,10.55 A11.1,11.1 0 0 0 659.8414251804352,178.26000213623047 s0,0.08000000000000003 0,0.12000000000000002 v29.22 a11.06,11.06 0 0 1 -0.3600000000000001,2.7600000000000002 a4,4 0 0 1 0.4800000000000001,0.6100000000000002 a11.16,11.16 0 0 0 0.09000000000000004,-1.3900000000000001 a11,11 0 0 0 0.19000000000000006,1.9100000000000001 a3.27,3.27 0 0 1 0.25,1.11 a11.09,11.09 0 0 0 4.33,6.07 h-9.52 l0.24000000000000005,-0.19000000000000006 c-0.8800000000000002,0 -1.78,-0.07 -2.66,-0.08000000000000003 a2.46,2.46 0 0 1 -0.92,-0.19000000000000006 a11.06,11.06 0 0 1 -3.18,0.4700000000000001 l-65.61,2 a11.06,11.06 0 0 0 -4.76,9.09 v29.22 a11.08,11.08 0 0 0 7.71,10.55 l62.66,0.52 a11.07,11.07 0 0 1 3.25,0.4900000000000001 a12.11,12.11 0 0 1 2.07,0.3600000000000001 l0.16000000000000006,0 a11,11 0 0 0 -1.9100000000000001,-0.8200000000000002 h15.42 a11.08,11.08 0 0 0 -7.71,10.55 a11.12,11.12 0 0 0 -0.17,-1.92 a2.46,2.46 0 0 1 -0.24000000000000005,0.3000000000000001 a11.12,11.12 0 0 1 0.21000000000000005,2.14 v29.22 c0,1.36 0.2,1 0.2,-0.52 a11.06,11.06 0 0 0 4.76,9.09 l39.09,1.25 a11,11 0 0 1 3.92,0.7300000000000002 h9.41 a11.12,11.12 0 0 0 -3.83,4.68 a11,11 0 0 1 1.57,5.66 V360.46000213623046 a11,11 0 0 1 -0.93,4.43 a11.1,11.1 0 0 0 6.13,4.87 H709.9014251804351 a11,11 0 0 1 -6,1.78 H665.1114251804352 a11.05,11.05 0 0 0 -5.07,9.3 c0,-3.9 -1.45,34.56 -1.45,34.56 c0,3.45 60.34,5 60.34,5 a11,11 0 0 1 4.45,0.9400000000000002 a7.75,7.75 0 0 1 1.92,-0.16000000000000006 l-0.06000000000000002,0 h9.52 a11.06,11.06 0 0 0 -4.76,9.09 a11.09,11.09 0 0 0 -0.12000000000000002,-1.58 c-0.05000000000000002,0.12000000000000002 -0.11000000000000003,0.24000000000000005 -0.17,0.3500000000000001 a11.08,11.08 0 0 1 0.2900000000000001,2.48 v28 a11.07,11.07 0 0 0 11.07,11.07 h-17 a11,11 0 0 1 -5.11,1.25 H649.5214251804351 a11.07,11.07 0 0 0 -6,9.82 v29.22 a11.07,11.07 0 0 0 11.07,11.07 H761.5314251804352 a11.07,11.07 0 0 0 11.07,-11.07 a11.07,11.07 0 0 0 11.07,11.07 H890.5814251804352 a11.07,11.07 0 0 0 11.07,-11.07 V481.5900021362305 a11.07,11.07 0 0 0 -11.07,-11.07 h86.45 a11.07,11.07 0 0 0 11.07,-11.07 V430.26000213623047 A11.07,11.07 0 0 0 977.0414251804352,419.14000213623046 zM712.2114251804352,220.65000213623046 a11.06,11.06 0 0 0 -4.76,9.09 a11.06,11.06 0 0 0 -4.76,-9.09 zM699.7414251804352,269.52000213623046 a11.08,11.08 0 0 0 7.71,-10.55 a11.08,11.08 0 0 0 7.71,10.55 zM738.5814251804352,169.26000213623047 a11.08,11.08 0 0 0 7.71,-10.55 A11.08,11.08 0 0 0 754.0014251804351,169.26000213623047 zm34,312.31 a11.07,11.07 0 0 0 -11.07,-11.07 h22.15 A11.07,11.07 0 0 0 772.6014251804352,481.5900021362305 zm11.73,-62.45 a11.06,11.06 0 0 0 4.76,-9.09 a11.06,11.06 0 0 0 4.76,9.09 zm4.76,-38.32 A11.08,11.08 0 0 0 781.3914251804351,370.26000213623047 H796.8414251804352 A11.08,11.08 0 0 0 789.0914251804352,380.83000213623046 zm-4.76,-61.92 a11.06,11.06 0 0 0 4.76,-9.09 a11.06,11.06 0 0 0 4.76,9.09 zm4.76,-38.32 a11.08,11.08 0 0 0 -7.71,-10.55 H796.8414251804352 A11.08,11.08 0 0 0 789.0914251804352,280.59000213623045 zm-4.76,-61.92 a11.06,11.06 0 0 0 4.76,-9.09 a11.06,11.06 0 0 0 4.76,9.09 zm4.76,-38.32 a11.08,11.08 0 0 0 -7.71,-10.55 H796.8414251804352 A11.08,11.08 0 0 0 789.0914251804352,180.35000213623047 zM863.8414251804352,421.1200021362305 a11.06,11.06 0 0 0 -4.76,9.09 a11.06,11.06 0 0 0 -4.76,-9.09 zm-15.84,49.39 a11.07,11.07 0 0 0 11.07,-11.07 a11.07,11.07 0 0 0 11.07,11.07 z" fill="#b6b6b6" id="svg_16" fill-opacity="1"/><path d="M660.0414251804352,410.0500021362305 " fill="#b6b6b6" id="svg_17" fill-opacity="1"/><path d="M643.5514251804352,481.5900021362305 a11.14,11.14 0 0 0 -0.1,-1.4100000000000001 A11.11,11.11 0 0 1 643.5514251804352,481.5900021362305 z" fill="#b6b6b6" id="svg_18" fill-opacity="1"/><path d="M578.4014251804351,258.97000213623045 c0,0.3500000000000001 0,0.7000000000000002 -0.05000000000000002,1 C578.3814251804351,259.66000213623045 578.4014251804351,259.32000213623047 578.4014251804351,258.97000213623045 z" fill="#b6b6b6" id="svg_19" fill-opacity="1"/><path d="M449.4714251804352,260.6200021362305 a11,11 0 0 0 0.28,1.32 A11,11 0 0 1 449.4714251804352,260.6200021362305 z" fill="#b6b6b6" id="svg_20" fill-opacity="1"/><path d="M325.54142518043517,325.91000213623045 a2.52,2.52 0 0 1 -0.4700000000000001,-0.56 a2.7,2.7 0 0 1 -0.3100000000000001,-0.92 a22.36,22.36 0 0 0 0,2.2800000000000002 a11,11 0 0 1 0.51,3.27 a11,11 0 0 1 0.4900000000000001,-3.19 a4.58,4.58 0 0 1 -0.23,-0.77 S325.54142518043517,325.95000213623047 325.54142518043517,325.91000213623045 z" fill="#b6b6b6" id="svg_21" fill-opacity="1"/><path d="M477.11142518043516,118.43000213623046 H370.2014251804352 a11.07,11.07 0 0 0 -11.07,11.07 a11.07,11.07 0 0 0 -11.07,-11.07 H241.15142518043518 a11.07,11.07 0 0 0 -11.07,11.07 v29.22 A11.08,11.08 0 0 0 237.78142518043518,169.26000213623047 H154.90142518043518 A11.07,11.07 0 0 0 143.84142518043518,180.35000213623047 v29.22 a11.06,11.06 0 0 0 4.76,9.09 H73.25142518043518 a11.07,11.07 0 0 0 -11.07,11.07 v29.22 a11.07,11.07 0 0 0 11.07,11.07 h78.28 A11.08,11.08 0 0 0 143.84142518043518,280.59000213623045 v29.22 a11.06,11.06 0 0 0 4.76,9.09 H78.27142518043519 a11.07,11.07 0 0 0 -11.07,11.07 v29.22 A11.07,11.07 0 0 0 78.27142518043519,370.26000213623047 h73.26 A11.08,11.08 0 0 0 143.84142518043518,380.83000213623046 v29.22 a11.07,11.07 0 0 0 11.07,11.07 h63.65 a11.06,11.06 0 0 0 -4.76,9.09 v29.22 A11.07,11.07 0 0 0 224.84142518043518,470.51000213623047 H138.41142518043517 a11.07,11.07 0 0 0 -11.07,11.07 v29.22 a11.07,11.07 0 0 0 11.07,11.07 H245.3114251804352 a11.07,11.07 0 0 0 11.07,-11.07 a11.07,11.07 0 0 0 11.07,11.07 H374.37142518043515 a11.07,11.07 0 0 0 11.07,-11.07 V481.5900021362305 a11.07,11.07 0 0 0 -6,-9.82 H356.42142518043516 a11,11 0 0 1 -5.11,-1.25 H331.7714251804352 A11.07,11.07 0 0 0 342.8414251804352,459.4400021362304 c0,4.82 2.51,-28 2.51,-28 a11.07,11.07 0 0 1 11.07,-11.07 l40.75,-1.25 a11.15,11.15 0 0 0 2.93,-3 a11,11 0 0 1 -0.8800000000000002,-4.29 V382.60000213623044 a11,11 0 0 1 1.83,-6.09 a11.11,11.11 0 0 0 -4.2,-5 H338.8414251804352 a11,11 0 0 1 -6,-1.78 H317.5914251804352 a11.08,11.08 0 0 0 7.71,-10.55 l-0.3900000000000001,-29 c0,-1.31 -0.07,-2.46 -0.12000000000000002,-3.49 a11.09,11.09 0 0 0 -4.25,-5.82 h9.52 l-0.21000000000000005,0.16000000000000006 c5.4,-0.3100000000000001 67.07,-3.93 72.09,-8 a8.7,8.7 0 0 1 -0.07,-2.3200000000000003 a11.1,11.1 0 0 1 -0.14,-1.6800000000000004 V279.8600021362305 c0,-0.3600000000000001 0,-0.7200000000000002 0.05000000000000002,-1.07 a11.09,11.09 0 0 0 -7.5600000000000005,-8.75 h13.48 a11,11 0 0 1 5.11,-1.25 h30.57 a11.06,11.06 0 0 0 6,-9.82 V229.7400021362305 a11.06,11.06 0 0 0 -4.76,-9.09 l-31.78,-2 c-5.38,0 -8.95,-2 -6.11,0 h-9.52 a11.05,11.05 0 0 0 4.76,-9 a11.12,11.12 0 0 1 -0.2,-2 V178.37000213623048 s0,0 0,-0.07 a11.09,11.09 0 0 0 -7.51,-8.5 H405.8414251804352 a11,11 0 0 1 7,-2.51 h71.31 a11,11 0 0 0 4.07,-8.57 V129.51000213623047 A11.07,11.07 0 0 0 477.11142518043516,118.43000213623046 zM196.0014251804352,220.65000213623046 a11.06,11.06 0 0 0 -4.76,9.09 a11.06,11.06 0 0 0 -4.76,-9.09 zm-4.76,38.32 a11.08,11.08 0 0 0 7.71,10.55 H183.53142518043518 A11.08,11.08 0 0 0 191.23142518043517,258.97000213623045 zm9.77,61.92 a11.06,11.06 0 0 0 -4.76,9.09 a11.06,11.06 0 0 0 -4.76,-9.09 zM188.54142518043517,369.7500021362305 a11.08,11.08 0 0 0 7.71,-10.55 a11.08,11.08 0 0 0 7.71,10.55 zm136.51,-149.1 a11.06,11.06 0 0 0 -4.76,9.09 a11.06,11.06 0 0 0 -4.76,-9.09 zM256.3914251804352,481.5900021362305 a11.07,11.07 0 0 0 -11.07,-11.07 h22.15 A11.07,11.07 0 0 0 256.3914251804352,481.5900021362305 zm11.73,-62.45 a11.06,11.06 0 0 0 4.76,-9.09 a11.06,11.06 0 0 0 4.76,9.09 zM272.8414251804352,380.83000213623046 A11.08,11.08 0 0 0 265.17142518043516,370.26000213623047 h15.42 A11.08,11.08 0 0 0 272.8414251804352,380.83000213623046 zm-4.76,-61.92 a11.06,11.06 0 0 0 4.76,-9.09 a11.06,11.06 0 0 0 4.76,9.09 zM272.8414251804352,280.59000213623045 a11.08,11.08 0 0 0 -7.71,-10.55 h15.42 A11.08,11.08 0 0 0 272.8414251804352,280.59000213623045 zm-4.76,-61.92 a11.06,11.06 0 0 0 4.76,-9.09 a11.06,11.06 0 0 0 4.76,9.09 zM272.8414251804352,180.35000213623047 a11.08,11.08 0 0 0 -7.71,-10.55 h15.42 A11.08,11.08 0 0 0 272.8414251804352,180.35000213623047 zm39.7,89.16 a11.08,11.08 0 0 0 7.71,-10.55 a11.08,11.08 0 0 0 7.71,10.55 zM351.42142518043516,169.26000213623047 a11.08,11.08 0 0 0 7.71,-10.55 A11.08,11.08 0 0 0 366.8414251804352,169.26000213623047 z" fill="#b6b6b6" id="svg_22" fill-opacity="1"/><path d="M452.98142518043517,221.5500021362305 l0.16000000000000006,-0.14 z" fill="#b6b6b6" id="svg_23" fill-opacity="1"/><path d="M452.25142518043515,222.26000213623047 l-0.16000000000000006,0.18000000000000005 z" fill="#b6b6b6" id="svg_24" fill-opacity="1"/><path d="M451.3214251804352,223.44000213623048 l0.08000000000000003,-0.11000000000000003 z" fill="#b6b6b6" id="svg_25" fill-opacity="1"/><path d="M449.8414251804352,262.16000213623045 a11,11 0 0 0 0.46,1.27 A11,11 0 0 1 449.8414251804352,262.16000213623045 z" fill="#b6b6b6" id="svg_26" fill-opacity="1"/><path d="M451.00142518043515,264.79000213623044 a11.08,11.08 0 0 0 0.8200000000000002,1.1400000000000001 A11.06,11.06 0 0 1 451.00142518043515,264.79000213623044 z" fill="#b6b6b6" id="svg_27" fill-opacity="1"/><path d="M450.3414251804352,263.54000213623044 a11,11 0 0 0 0.6600000000000003,1.24 A11,11 0 0 1 450.3414251804352,263.54000213623044 z" fill="#b6b6b6" id="svg_28" fill-opacity="1"/><path d="M449.6514251804351,227.21000213623046 c0,-0.14 0.07,-0.27 0.1,-0.4 C449.7114251804352,226.94000213623048 449.6814251804352,227.07000213623047 449.6514251804351,227.21000213623046 z" fill="#b6b6b6" id="svg_29" fill-opacity="1"/><path d="M450.02142518043513,225.96000213623046 c0,-0.11000000000000003 0.08000000000000003,-0.22000000000000006 0.12000000000000002,-0.3300000000000001 C450.10142518043517,225.7400021362305 450.0614251804352,225.85000213623044 450.02142518043513,225.96000213623046 z" fill="#b6b6b6" id="svg_30" fill-opacity="1"/><path d="M449.4214251804352,228.46000213623046 c0,-0.13 0,-0.26 0.06000000000000002,-0.3800000000000001 C449.4614251804352,228.21000213623046 449.4414251804352,228.33000213623046 449.4214251804352,228.46000213623046 z" fill="#b6b6b6" id="svg_31" fill-opacity="1"/><path d="M450.63142518043514,224.57000213623047 l0,0 z" fill="#b6b6b6" id="svg_32" fill-opacity="1"/><rect x="997.3613891601562" y="554.1500244140625" width="129.0500030517578" height="51.369998931884766" rx="8.84000015258789" ry="8.84000015258789" transform="rotate(-180 678.8713989257812,361.98001098632807) " opacity="0.1" id="svg_33" fill="#b6b6b6" fill-opacity="1"/><rect x="2155.091552734375" y="554.1500244140625" width="129.0500030517578" height="51.369998931884766" rx="8.84000015258789" ry="8.84000015258789" transform="rotate(-180 1450.69140625,361.9800109863281) " opacity="0.1" id="svg_34" fill="#b6b6b6" fill-opacity="1"/><rect x="2670.051513671875" y="704.510009765625" width="129.0500030517578" height="51.369998931884766" rx="8.84000015258789" ry="8.84000015258789" transform="rotate(-180 1794.00146484375,462.2200012207031) " opacity="0.1" id="svg_35" fill="#b6b6b6" fill-opacity="1"/><rect x="2038.5615234375" y="854.8599853515625" width="129.0500030517578" height="51.369998931884766" rx="8.84000015258789" ry="8.84000015258789" transform="rotate(-180 1373.00146484375,562.4500122070311) " opacity="0.1" id="svg_36" fill="#b6b6b6" fill-opacity="1"/><rect x="2670.051513671875" y="1008.969970703125" width="129.0500030517578" height="51.369998931884766" rx="8.84000015258789" ry="8.84000015258789" transform="rotate(-180 1794.00146484375,665.1900024414062) " opacity="0.1" id="svg_37" fill="#b6b6b6" fill-opacity="1"/><rect x="2670.051513671875" y="1309.68994140625" width="129.0500030517578" height="51.369998931884766" rx="8.84000015258789" ry="8.84000015258789" transform="rotate(-180 1794.00146484375,865.6699829101562) " opacity="0.1" id="svg_38" fill="#b6b6b6" fill-opacity="1"/><path d="M851.0014251804351,420.40000213623046 H738.0714251804352 a8.06,8.06 0 0 0 -7.74,5.8 a5.15,5.15 0 0 1 -0.09000000000000004,1.36 a5.71,5.71 0 0 1 -0.23,0.77 s0,0.09000000000000004 0,0.13 v35.25 a8.06,8.06 0 0 0 8.06,8.06 H851.0014251804351 a8.06,8.06 0 0 0 8.06,-8.06 V428.46000213623046 A8.06,8.06 0 0 0 851.0014251804351,420.40000213623046 z" opacity="0.1" id="svg_39" fill="#b6b6b6" fill-opacity="1"/><rect x="2234.021484375" y="1610.3900146484375" width="129.0500030517578" height="51.369998931884766" rx="8.84000015258789" ry="8.84000015258789" transform="rotate(-180 1503.3114013671875,1066.1400146484375) " opacity="0.1" id="svg_40" fill="#b6b6b6" fill-opacity="1"/><rect x="1121.4013671875" y="704.510009765625" width="129.0500030517578" height="51.369998931884766" rx="8.84000015258789" ry="8.84000015258789" transform="rotate(-180 761.5614013671875,462.2200012207031) " opacity="0.1" id="svg_41" fill="#b6b6b6" fill-opacity="1"/><rect x="880.8314208984375" y="854.8599853515625" width="129.0500030517578" height="51.369998931884766" rx="8.84000015258789" ry="8.84000015258789" transform="rotate(-180 601.181396484375,562.4500122070312) " opacity="0.1" id="svg_42" fill="#b6b6b6" fill-opacity="1"/><rect x="734.2314453125" y="1008.969970703125" width="129.0500030517578" height="51.369998931884766" rx="8.84000015258789" ry="8.84000015258789" transform="rotate(-180 503.4514465332032,665.1900024414062) " opacity="0.1" id="svg_43" fill="#b6b6b6" fill-opacity="1"/><rect x="892.1114501953125" y="1159.3299560546875" width="129.0500030517578" height="51.369998931884766" rx="8.84000015258789" ry="8.84000015258789" transform="rotate(-180 608.701416015625,765.4299926757812) " opacity="0.1" id="svg_44" fill="#b6b6b6" fill-opacity="1"/><rect x="734.2314453125" y="1309.68994140625" width="129.0500030517578" height="51.369998931884766" rx="8.84000015258789" ry="8.84000015258789" transform="rotate(-180 503.4514465332031,865.6699829101562) " opacity="0.1" id="svg_45" fill="#b6b6b6" fill-opacity="1"/><rect x="559.0914306640625" y="1460.199951171875" width="129.0500030517578" height="51.369998931884766" rx="8.84000015258789" ry="8.84000015258789" transform="rotate(-180 386.6914367675781,966.010009765625) " fill="#b6b6b6" id="svg_46" fill-opacity="1"/><rect x="2819.641357421875" y="1159.1600341796875" width="129.0500030517578" height="51.369998931884766" rx="8.84000015258789" ry="8.84000015258789" transform="rotate(-180 1893.721435546875,765.3200073242188) " fill="#b6b6b6" id="svg_47" fill-opacity="1"/><rect x="2803.21142578125" y="855.3800048828125" width="129.0500030517578" height="51.369998931884766" rx="8.84000015258789" ry="8.84000015258789" transform="rotate(-180 1882.7713623046875,562.7999877929688) " fill="#b6b6b6" id="svg_48" fill-opacity="1"/><rect x="2997.521484375" y="1607.989990234375" width="129.0500030517578" height="51.369998931884766" rx="8.84000015258789" ry="8.84000015258789" transform="rotate(-180 2012.3114013671875,1064.5400390624998) " fill="#b6b6b6" id="svg_49" fill-opacity="1"/><rect x="299.0914306640625" y="1610.719970703125" width="129.0500030517578" height="51.369998931884766" rx="8.84000015258789" ry="8.84000015258789" transform="rotate(-180 213.36141967773438,1066.3599853515625) " fill="#b6b6b6" id="svg_50" fill-opacity="1"/><rect x="351.0914306640625" y="1306.949951171875" width="129.0500030517578" height="51.369998931884766" rx="8.84000015258789" ry="8.84000015258789" transform="rotate(-180 248.02142333984375,863.8400268554688) " fill="#b6b6b6" id="svg_51" fill-opacity="1"/><rect x="351.0914306640625" y="1008.6400146484375" width="129.0500030517578" height="51.369998931884766" rx="8.84000015258789" ry="8.84000015258789" transform="rotate(-180 248.02142333984372,664.969970703125) " fill="#b6b6b6" id="svg_52" fill-opacity="1"/><rect x="364.7814025878906" y="704.8599853515625" width="129.0500030517578" height="51.369998931884766" rx="8.84000015258789" ry="8.84000015258789" transform="rotate(-180 257.15142822265625,462.45001220703125) " fill="#b6b6b6" id="svg_53" fill-opacity="1"/><rect x="364.7814025878906" y="704.8599853515625" width="129.0500030517578" height="51.369998931884766" rx="8.84000015258789" ry="8.84000015258789" transform="rotate(-180 257.15142822265625,462.45001220703125) " opacity="0.1" id="svg_54" fill="#b6b6b6" fill-opacity="1"/><rect x="611.0814208984375" y="554.3499755859375" width="129.0500030517578" height="51.369998931884766" rx="8.84000015258789" ry="8.84000015258789" transform="rotate(-180 421.3514404296875,362.1099853515625) " fill="#b6b6b6" id="svg_55" fill-opacity="1"/><rect x="948.4913940429688" y="1460.0400390625" width="129.0500030517578" height="51.369998931884766" rx="8.84000015258789" ry="8.84000015258789" transform="rotate(-180 646.2913818359376,965.9000244140625) " opacity="0.1" id="svg_56" fill="#b6b6b6" fill-opacity="1"/><rect x="685.3714599609375" y="1610.3900146484375" width="129.0500030517578" height="51.369998931884766" rx="8.84000015258789" ry="8.84000015258789" transform="rotate(-180 470.8814392089844,1066.1400146484375) " opacity="0.1" id="svg_57" fill="#b6b6b6" fill-opacity="1"/></g><circle cx="810.3400268554688" cy="28.920000076293945" r="28.920000076293945" fill="#b6b6b6" opacity="0.5" id="svg_58" class="" fill-opacity="1"/><path d="M250.5114251804352,81.35000213623047 h-6.88 a4.82,4.82 0 0 0 0,-9.63 H187.90142518043518 a4.82,4.82 0 1 0 0,9.63 h6.88 a4.82,4.82 0 0 0 0,9.63 h-9.63 a4.82,4.82 0 1 0 0,9.63 H240.84142518043518 a4.82,4.82 0 0 0 0,-9.63 h9.63 a4.82,4.82 0 0 0 0,-9.63 z" fill="#b6b6b6" opacity="0.5" id="svg_59" class="selected" fill-opacity="1"/><path d="M806.6699966430664,25.440002136230476 h-5.24 a3.67,3.67 0 0 0 0,-7.33 H759.0199966430664 a3.67,3.67 0 0 0 0,7.33 H764.2699966430664 a3.67,3.67 0 1 0 0,7.33 h-7.33 a3.67,3.67 0 0 0 0,7.33 h42.42 a3.67,3.67 0 1 0 0,-7.33 h7.33 a3.67,3.67 0 1 0 0,-7.33 z" fill="#b6b6b6" opacity="0.5" id="svg_60" class="" fill-opacity="1"/><path d="M383.9399966430664,13.350002136230472 h-6.88 a4.82,4.82 0 1 0 0,-9.63 H321.3299966430664 a4.82,4.82 0 1 0 0,9.63 h6.88 a4.82,4.82 0 0 0 0,9.63 h-9.63 a4.82,4.82 0 1 0 0,9.63 H374.2699966430664 a4.82,4.82 0 0 0 0,-9.63 h9.63 a4.82,4.82 0 0 0 0,-9.63 z" fill="#b6b6b6" opacity="0.5" id="svg_61" class="" fill-opacity="1"/><polygon points="552.66 540.06 571.66 540.06 571.66 528.29 571.66 526.24 416.16 526.24 416.16 528.29 416.16 540.06 435.16 540.06 435.16 553.89 404.06 553.89 404.06 571.16 583.76 571.16 583.76 553.89 552.66 553.89 552.66 540.06" fill="url(#b417a2e5-779f-434a-8a9b-5b809751130b)" id="svg_62"/><path d="M679.9599966430665,552.7200021362305 h0 c1.36,-18.6 0.8800000000000001,-34.61 -1,-48.4 c-2.13,-15.870000000000001 -6.08,-28.78 -11.09,-39.28 c-10,-21 -24.25,-32.39 -36.76,-38.58 a69.16,69.16 0 0 0 -26.9,-7.34 a12.08,12.08 0 0 0 -23.91,-0.05000000000000001 V388.01000213623047 H514.6399966430664 V370.7300021362305 h88.48 a10,10 0 0 0 10,-10 V270.16000213623045 a10,10 0 0 0 -10,-10 H569.5299966430664 V170.88000213623047 a13.48,13.48 0 0 0 7.93,-12.28 c0,-0.13 0,-0.26 0,-0.4 s0,-0.26 0,-0.4 a13.49,13.49 0 0 0 -27,0 c0,0.13 0,0.26 0,0.4 s0,0.26 0,0.4 a13.48,13.48 0 0 0 7.14,11.9 v89.65 H433.07999664306635 V170.50000213623048 a13.48,13.48 0 0 0 7.14,-11.9 c0,-0.13 0,-0.26 0,-0.4 s0,-0.26 0,-0.4 a13.49,13.49 0 0 0 -27,0 c0,0.13 0,0.26 0,0.4 s0,0.26 0,0.4 a13.48,13.48 0 0 0 7.93,12.28 v89.26 H384.6999966430664 a10,10 0 0 0 -10,10 v90.56 a10,10 0 0 0 10,10 h88.48 v17.28 H407.5199966430664 v25.46 a12.07,12.07 0 0 0 -2.6100000000000003,-4.35 l-0.29000000000000004,-0.29000000000000004 a12.09,12.09 0 0 0 -20.64,8.55 v1.73 s-12.42,0 -27.27,7.35 c-12.51,6.19 -26.75,17.58 -36.76,38.58 c-5,10.5 -9,23.42 -11.09,39.28 c-1.86,13.78 -2.35,29.8 -1,48.4 c-27.73,23 7,56.46 7,56.46 c28.45,0 27.82,-47.23 27.5,-55.29 h0.14 s-0.08000000000000002,-0.4 -0.2,-1.1400000000000001 v0 h0 a176.9,176.9 0 0 1 -1.71,-39.9 c0.79,-10.17 2.74,-20.93 6.74,-30.61 a54.35,54.35 0 0 1 13.68,-20.05 a46.75,46.75 0 0 1 23,-11.07 v7.77 a12.09,12.09 0 0 0 23.53,3.91 V526.2600021362305 H580.2699966430664 V464.0700021362304 a12.07,12.07 0 0 0 3.07,6.44 l0.33000000000000007,0.35000000000000003 A12.09,12.09 0 0 0 604.3499966430664,462.26000213623047 V451.1800021362304 a46.62,46.62 0 0 1 22.46,11 a54.35,54.35 0 0 1 13.68,20.05 c4,9.69 5.94,20.44 6.74,30.61 a176.9,176.9 0 0 1 -1.71,39.9 h0 v0 c-0.12000000000000001,0.7400000000000001 -0.2,1.1400000000000001 -0.2,1.1400000000000001 h0.14 c-0.32000000000000006,8.06 -0.9500000000000001,55.29 27.5,55.29 C672.9599966430665,609.1800021362304 707.6899966430664,575.7400021362305 679.9599966430665,552.7200021362305 z" fill="url(#04db0182-19cc-4c2e-a103-750e5424fcaf)" id="svg_63" class=""/><polygon points="412.7 572.75 412.7 588.45 433.44 588.45 433.44 612.63 433.44 612.63 433.44 633.37 433.44 664.47 433.44 681.75 433.44 692.12 409.24 692.12 409.24 716.3 474.9 716.3 474.9 692.12 464.54 692.12 464.54 681.75 464.54 681.75 464.54 664.47 464.54 664.47 464.54 633.37 464.54 633.37 464.54 612.63 464.54 612.63 464.54 588.45 488.72 588.45 488.72 572.75 488.72 571.17 412.7 571.17 412.7 572.75" fill="url(#497b2842-48f9-46b6-a092-cc1e43f49418)" id="svg_64"/><polygon points="495.64 572.75 495.64 588.45 526.74 588.45 526.74 612.63 526.74 612.63 526.74 633.37 526.74 664.47 526.74 681.75 526.74 692.12 502.55 692.12 502.55 716.3 568.21 716.3 568.21 692.12 557.84 692.12 557.84 681.75 557.84 664.47 557.84 633.37 557.84 612.63 557.84 612.63 557.84 588.45 571.66 588.45 571.66 572.75 571.66 571.17 495.64 571.17 495.64 572.75" fill="url(#fadd9628-c3f0-4493-ac03-d18d51c12264)" id="svg_65"/><rect x="376.48143219947815" y="264.739990234375" width="232.00999450683594" height="107.5999984741211" rx="12.970000267028809" ry="12.970000267028809" fill="#6d6d6d" id="svg_66" class="" fill-opacity="1"/><rect x="396.3999938964844" y="355.8299865722656" width="195.02000427246094" height="2.0199999809265137" opacity="0.1" id="svg_67"/><rect x="396.3999938964844" y="281.54998779296875" width="195.02000427246094" height="73.97000122070312" opacity="1" id="svg_68" class="" fill="#b6b6b6" fill-opacity="1"/><circle cx="441.7900085449219" cy="320.0799865722656" r="26.899999618530273" opacity="0.1" id="svg_69"/><circle cx="546.030029296875" cy="320.0799865722656" r="26.899999618530273" opacity="0.1" id="svg_71"/><circle cx="545.3157348632812" cy="319.96856689453125" r="20.47142791748047" fill="#dadada" id="svg_72" class="" fill-opacity="1"/><circle cx="442.45859146118164" cy="321.3971383571625" r="20.47142791748047" fill="#dadada" class="" fill-opacity="1" id="svg_70" transform="translate(0,-1.4285714626312256) "/><rect x="473.7300109863281" y="372.3399963378906" width="40.349998474121094" height="23.540000915527344" fill="#6d6d6d" id="svg_73" class="" fill-opacity="1"/><rect x="409.8500061035156" y="389.1499938964844" width="168.1199951171875" height="134.5" fill="#919191" id="svg_74" class="" fill-opacity="1"/><polygon points="569.57 523.65 569.57 537.1 551.07 537.1 551.07 550.55 436.74 550.55 436.74 537.1 418.26 537.1 418.26 523.65 569.57 523.65" fill="#6c63ff" id="svg_75"/><polygon points="568.1414358615875,523.6500244140625 568.1414358615875,537.0999755859375 549.6414358615875,537.0999755859375 549.6414358615875,550.5499877929688 435.3114187717438,550.5499877929688 435.3114187717438,537.0999755859375 416.8314383029938,537.0999755859375 416.8314383029938,523.6500244140625 568.1414358615875,523.6500244140625 " opacity="1" id="svg_76" class="" fill="#6d6d6d" fill-opacity="1"/><rect x="406.489990234375" y="550.5499877929688" width="174.85000610351562" height="16.809999465942383" fill="#6d6d6d" id="svg_77" class="" fill-opacity="1"/><rect x="414.8900146484375" y="567.3699951171875" width="73.97000122070312" height="16.809999465942383" fill="#6d6d6d" id="svg_78" class="" fill-opacity="1"/><rect x="495.5899963378906" y="567.3699951171875" width="73.97000122070312" height="16.809999465942383" fill="#6d6d6d" id="svg_79" class="" fill-opacity="1"/><rect x="411.5299987792969" y="685.0499877929688" width="63.88999938964844" height="23.540000915527344" fill="#6d6d6d" id="svg_80" class="" fill-opacity="1"/><polygon points="435.07 607.71 435.07 627.89 435.07 658.15 435.07 674.96 435.07 685.05 465.33 685.05 465.33 674.96 465.33 658.15 465.33 627.89 465.33 607.71 465.33 584.17 435.07 584.17 435.07 607.71" fill="#919191" id="svg_81" class="" fill-opacity="1"/><polygon points="525.85 584.17 525.85 607.71 525.85 627.89 525.85 658.15 525.85 674.96 525.85 685.05 556.12 685.05 556.12 674.96 556.12 658.15 556.12 627.89 556.12 607.71 556.12 584.17 525.85 584.17" fill="#919191" id="svg_82" class="" fill-opacity="1"/><rect x="502.32000732421875" y="685.0499877929688" width="63.88999938964844" height="23.540000915527344" fill="#6d6d6d" id="svg_83" class="" fill-opacity="1"/><path d="M410.48999664306643,417.7300021362305 v40.35 c0,0.30000000000000004 0,0.6100000000000001 0,0.9 a11.77,11.77 0 0 1 -23.5,-0.9 V417.7300021362305 a11.76,11.76 0 0 1 20.08,-8.32 l0.28,0.29000000000000004 a11.72,11.72 0 0 1 3.13,7.13 C410.4699966430664,417.1200021362305 410.48999664306643,417.4300021362305 410.48999664306643,417.7300021362305 z" fill="#6d6d6d" id="svg_84" class="" opacity="1" fill-opacity="1"/><path d="M601.3699966430664,421.09000213623045 v40.36 A11.76,11.76 0 0 1 581.2699966430664,469.77000213623046 l-0.32000000000000006,-0.3400000000000001 a11.73,11.73 0 0 1 -3.13,-8 V421.09000213623045 a11.77,11.77 0 0 1 23.54,0 z" fill="#6d6d6d" id="svg_85" class="" fill-opacity="1"/><path d="M386.9499966430664,419.41000213623045 v31.1 A45.49,45.49 0 0 0 364.5999966430664,461.26000213623047 A52.88,52.88 0 0 0 351.2699966430664,480.80000213623043 c-3.89,9.42 -5.78,19.89 -6.55,29.79 a170.32,170.32 0 0 0 1.86,40 H312.9699966430664 c-1.4300000000000002,-18.59 -1,-34.53 0.8800000000000001,-48.23 c2.08,-15.44 5.92,-28 10.79,-38.22 c9.74,-20.43 23.6,-31.52 35.77,-37.54 C374.86999664306643,419.41000213623045 386.9499966430664,419.41000213623045 386.9499966430664,419.41000213623045 z" fill="#919191" id="svg_86" class="" fill-opacity="1"/><path d="M319.6999966430664,604.3500021362305 s-33.79,-32.53 -6.8100000000000005,-54.93 h33.51 S349.9599966430664,604.3500021362305 319.6999966430664,604.3500021362305 z" fill="#6c63ff" id="svg_87"/><path d="M319.6999966430664,604.3500021362305 s-33.79,-32.53 -6.8100000000000005,-54.93 h33.51 S349.9599966430664,604.3500021362305 319.6999966430664,604.3500021362305 z" opacity="1" id="svg_88" class="" fill="#6d6d6d" fill-opacity="1"/><rect x="436.75" y="409.3299865722656" width="114.31999969482422" height="87.41999816894531" opacity="0.3" id="svg_89" class=""/><rect x="435.07000732421875" y="584.1699829101562" width="30.260000228881836" height="23.540000915527344" opacity="0.3" id="svg_90"/><rect x="435.07000732421875" y="627.8900146484375" width="30.260000228881836" height="30.260000228881836" opacity="0.3" id="svg_91"/><rect x="435.07000732421875" y="674.9600219726562" width="30.260000228881836" height="10.09000015258789" opacity="0.3" id="svg_92"/><rect x="525.8499755859375" y="584.1699829101562" width="30.260000228881836" height="23.540000915527344" opacity="0.3" id="svg_93" class=""/><rect x="525.8499755859375" y="627.8900146484375" width="30.260000228881836" height="30.260000228881836" opacity="0.3" id="svg_94"/><rect x="525.8499755859375" y="674.9600219726562" width="30.260000228881836" height="10.09000015258789" opacity="0.3" id="svg_95"/><path d="M386.9499966430664,419.41000213623045 v31.1 A45.49,45.49 0 0 0 364.5999966430664,461.26000213623047 l-4.18,-34.73 C374.86999664306643,419.41000213623045 386.9499966430664,419.41000213623045 386.9499966430664,419.41000213623045 z" opacity="0.3" id="svg_96"/><path d="M351.2699966430664,480.80000213623043 c-3.89,9.42 -5.78,19.89 -6.55,29.79 l-30.88,-8.27 c2.08,-15.44 5.92,-28 10.79,-38.22 z" opacity="0.3" id="svg_97"/><path d="M600.8799966430664,419.41000213623045 v31.1 A45.49,45.49 0 0 1 623.2699966430664,461.26000213623047 a52.88,52.88 0 0 1 13.31,19.51 c3.89,9.42 5.78,19.89 6.55,29.79 a170.32,170.32 0 0 1 -1.86,40 h33.62 c1.4300000000000002,-18.59 1,-34.53 -0.8800000000000001,-48.23 c-2.08,-15.44 -5.92,-28 -10.79,-38.22 c-9.74,-20.43 -23.6,-31.52 -35.77,-37.54 C612.9599966430665,419.41000213623045 600.8799966430664,419.41000213623045 600.8799966430664,419.41000213623045 z" fill="#919191" id="svg_98" class="" fill-opacity="1"/><path d="M668.1299966430664,604.3500021362305 s33.79,-32.53 6.8100000000000005,-54.93 H641.4199966430664 S637.8699966430664,604.3500021362305 668.1299966430664,604.3500021362305 z" fill="#6c63ff" id="svg_99"/><path d="M668.1299966430664,604.3500021362305 s33.79,-32.53 6.8100000000000005,-54.93 H641.4199966430664 S637.8699966430664,604.3500021362305 668.1299966430664,604.3500021362305 z" opacity="1" id="svg_100" class="" fill="#6d6d6d" fill-opacity="1"/><path d="M600.8799966430664,417.9814306735992 v31.1 A45.49,45.49 0 0 1 623.2699966430664,459.83143067359924 l4.18,-34.73 C612.9599966430665,417.9814306735992 600.8799966430664,417.9814306735992 600.8799966430664,417.9814306735992 z" opacity="0.3" id="svg_101" class=""/><path d="M636.5399966430664,480.80000213623043 c3.89,9.42 5.78,19.89 6.55,29.79 l30.88,-8.27 c-2.08,-15.44 -5.92,-28 -10.79,-38.22 z" opacity="0.3" id="svg_102"/><rect x="473.7300109863281" y="372.3399963378906" width="40.349998474121094" height="2.7899999618530273" opacity="0.1" id="svg_103"/><path d="M580.9599966430665,413.1200021362305 v56.31 a11.73,11.73 0 0 1 -3.13,-8 V421.09000213623045 A11.71,11.71 0 0 1 580.9599966430665,413.1200021362305 z" opacity="0.1" id="svg_104"/><path d="M410.4499966430664,416.83000213623046 v42.15 a11.72,11.72 0 0 1 -3.13,7.13 V409.70000213623047 A11.72,11.72 0 0 1 410.4499966430664,416.83000213623046 z" opacity="0.1" id="svg_105"/><rect x="418.260009765625" y="523.6500244140625" width="151.30999755859375" height="1.9900000095367432" opacity="0.1" id="svg_106"/><rect x="414.8900146484375" y="567.3699951171875" width="73.97000122070312" height="1.5399999618530273" opacity="0.1" id="svg_107"/><rect x="495.5899963378906" y="567.3699951171875" width="73.97000122070312" height="1.5399999618530273" opacity="0.1" id="svg_108" class=""/><rect x="423.1400146484375" y="165.1699981689453" width="11.579999923706055" height="99.58000183105469" fill="#919191" id="svg_109" class="" fill-opacity="1"/><rect x="555.9099731445312" y="165.1699981689453" width="11.579999923706055" height="99.58000183105469" fill="#919191" id="svg_110" class="" fill-opacity="1"/><circle cx="428.54998779296875" cy="165.94000244140625" r="13.119999885559082" opacity="0.1" id="svg_111"/><circle cx="428.54998779296875" cy="165.1699981689453" r="13.119999885559082" fill="#6d6d6d" id="svg_112" class="" fill-opacity="1"/><circle cx="562.0900268554688" cy="165.94000244140625" r="13.119999885559082" opacity="0.1" id="svg_113"/><circle cx="562.0900268554688" cy="165.1699981689453" r="13.119999885559082" fill="#6d6d6d" id="svg_114" class="" transform="translate(-1.4285714626312256,0) " fill-opacity="1"/><path d="M151.5299966430664,470.26000213623047 s38.4,75.38 7.11,116.62 s2.84,153.6 2.84,153.6 " fill="none" stroke="#fc6681" stroke-miterlimit="10" stroke-width="2" id="svg_115"/><path d="M162.8999966430664,446.7400021362305 C162.8999966430664,461.26000213623047 152.2699966430664,473.0600021362304 152.2699966430664,473.0600021362304 S141.56999664306642,461.26000213623047 141.56999664306642,446.7400021362305 S152.2699966430664,420.4300021362305 152.2699966430664,420.4300021362305 S162.8999966430664,432.26000213623047 162.8999966430664,446.7400021362305 z" fill="#fc6681" id="svg_116"/><path d="M171.43999664306642,470.26000213623047 s-38.4,75.38 -7.11,116.62 s-2.84,153.6 -2.84,153.6 " fill="none" stroke="#ffd037" stroke-miterlimit="10" stroke-width="2" id="svg_117"/><path d="M160.0599966430664,446.7400021362305 c0,14.53 10.67,26.31 10.67,26.31 s10.67,-11.78 10.67,-26.31 s-10.67,-26.31 -10.67,-26.31 S160.0599966430664,432.26000213623047 160.0599966430664,446.7400021362305 z" fill="#ffd037" id="svg_118"/><path d="M187.0799966430664,470.26000213623047 s38.4,75.38 7.11,116.62 s2.84,153.6 2.84,153.6 " fill="none" stroke="#fc6681" stroke-miterlimit="10" stroke-width="2" id="svg_119"/><path d="M198.4599966430664,446.7400021362305 c0,14.53 -10.67,26.31 -10.67,26.31 S177.12999664306642,461.26000213623047 177.12999664306642,446.7400021362305 s10.67,-26.31 10.67,-26.31 S198.4599966430664,432.26000213623047 198.4599966430664,446.7400021362305 z" fill="#fc6681" id="svg_120"/><path d="M192.47999664306639,507.14000213623046 c-10.07,10.47 -25.93,11.57 -25.93,11.57 s0.48000000000000004,-15.88 10.55,-26.36 s25.93,-11.57 25.93,-11.57 S202.54999664306638,496.67000213623044 192.47999664306639,507.14000213623046 z" fill="#fc6681" id="svg_121"/><path d="M193.47999664306639,559.1400021362305 c-10.07,10.47 -25.93,11.57 -25.93,11.57 s0.48000000000000004,-15.88 10.55,-26.36 s25.93,-11.57 25.93,-11.57 S203.54999664306638,548.6700021362304 193.47999664306639,559.1400021362305 z" fill="#fc6681" id="svg_122"/><path d="M138.84999664306642,587.7500021362305 c9.53,11 9.19,26.86 9.19,26.86 s-15.78,-1.9 -25.3,-12.870000000000001 s-9.19,-26.86 -9.19,-26.86 S129.31999664306642,576.7800021362305 138.84999664306642,587.7500021362305 z" fill="#fc6681" id="svg_123"/><path d="M147.6899966430664,476.8500021362305 c12.11,8 16,23.43 16,23.43 s-15.71,2.38 -27.82,-5.640000000000001 s-16,-23.43 -16,-23.43 S135.56999664306642,468.8300021362305 147.6899966430664,476.8500021362305 z" fill="#fc6681" id="svg_124"/><path d="M206.98999664306643,470.26000213623047 s-38.4,75.38 -7.11,116.62 s-2.84,153.6 -2.84,153.6 " fill="none" stroke="#ffd037" stroke-miterlimit="10" stroke-width="2" id="svg_125"/><path d="M195.61999664306643,446.7400021362305 C195.61999664306643,461.26000213623047 206.2699966430664,473.0600021362304 206.2699966430664,473.0600021362304 s10.67,-11.78 10.67,-26.31 S206.2699966430664,420.4300021362305 206.2699966430664,420.4300021362305 S195.61999664306643,432.26000213623047 195.61999664306643,446.7400021362305 z" fill="#ffd037" id="svg_126"/><path d="M197.2514251804352,508.26000213623047 c-10.2,10.35 -10.870000000000001,26.23 -10.870000000000001,26.23 s15.870000000000001,-0.9 26.07,-11.25 s10.870000000000001,-26.23 10.870000000000001,-26.23 S207.4514251804352,497.91000213623045 197.2514251804352,508.26000213623047 z" fill="#ffd037" id="svg_127" class=""/><path d="M218.67999664306643,580.2600021362305 c-10.2,10.35 -10.870000000000001,26.23 -10.870000000000001,26.23 s15.870000000000001,-0.9 26.07,-11.25 s10.870000000000001,-26.23 10.870000000000001,-26.23 S228.87999664306642,569.9100021362304 218.67999664306643,580.2600021362305 z" fill="#ffd037" id="svg_128" class=""/><path d="M189.2699966430664,564.4300021362304 s23.12,-36.44 55.56,-37.22 " fill="none" stroke="#ffd037" stroke-miterlimit="10" stroke-width="2" id="svg_129"/><path d="M171.2699966430664,542.4300021362304 S148.1399966430664,506.0000021362305 115.69999664306641,505.26000213623047 " fill="none" stroke="#fc6681" stroke-miterlimit="10" stroke-width="2" id="svg_130"/><path d="M168.2699966430664,594.4300021362304 s23.12,-36.44 55.56,-37.22 " fill="none" stroke="#ffd037" stroke-miterlimit="10" stroke-width="2" id="svg_131"/><circle cx="243.75999450683594" cy="526.9299926757812" r="6" fill="#ffd037" id="svg_132"/><circle cx="116.26000213623047" cy="505.42999267578125" r="6" fill="#fc6681" id="svg_133"/><path d="M185.2699966430664,606.4300021362304 S162.1399966430664,570.0000021362305 129.6999966430664,569.2600021362305 " fill="none" stroke="#fc6681" stroke-miterlimit="10" stroke-width="2" id="svg_134"/><circle cx="130.25999450683594" cy="569.4299926757812" r="6" fill="#fc6681" id="svg_135"/><circle cx="224.25999450683594" cy="557.4299926757812" r="6" fill="#ffd037" id="svg_136"/><path d="M313.0299966430664,696.6700021362304 s-55.7,-11.14 -70.56,-26 s-81.7,-40.85 -89.13,-22.28 S53.07999664306641,730.0900021362305 116.2099966430664,741.2600021362305 s148.54,14.85 167.11,7.43 S313.0299966430664,696.6700021362304 313.0299966430664,696.6700021362304 z" fill="#b27b40" id="svg_137" class="" fill-opacity="1"/><path d="M116.2099966430664,734.3300021362305 c63.13,11.14 148.54,14.85 167.11,7.43 c14.14,-5.66 24,-32.83 27.85,-45.48 l1.86,0.39000000000000007 s-11.14,44.56 -29.71,52 s-104,3.71 -167.11,-7.43 c-18.22,-3.22 -23.43,-10.77 -21.47,-20.33 C96.2699966430664,727.1400021362305 102.6499966430664,731.9400021362304 116.2099966430664,734.3300021362305 z" opacity="0.2" id="svg_138"/><path d="M914.6499966430664,483.52000213623046 s13.35,17.45 -6.16,43.81 s-35.59,48.6 -29.09,65 c0,0 29.43,-48.94 53.39,-49.62 S941.0099966430664,512.9500021362305 914.6499966430664,483.52000213623046 z" fill="#fc6681" id="svg_139"/><path d="M914.6499966430664,483.52000213623046 a21.62,21.62 0 0 1 2.73,5.47 c23.37,27.46 35.83,53.09 13.36,53.73 c-20.93,0.6000000000000001 -46,38 -52,47.47 a20.28,20.28 0 0 0 0.7100000000000001,2.15 s29.43,-48.94 53.39,-49.62 S941.0099966430664,512.9500021362305 914.6499966430664,483.52000213623046 z" opacity="0.1" id="svg_140"/><path d="M939.4699966430665,505.76000213623047 c0,6.14 -0.6900000000000002,11.12 -1.54,11.12 s-1.54,-5 -1.54,-11.12 s0.8600000000000001,-3.25 1.71,-3.25 S939.4699966430665,499.6200021362305 939.4699966430665,505.76000213623047 z" fill="#ffd037" id="svg_141"/><path d="M947.9799966430664,513.1000021362305 c-5.39,2.94 -10.1,4.72 -10.5,4 s3.64,-3.74 9,-6.68 s3.27,-0.8 3.67,-0.05000000000000001 S953.3699966430663,510.16000213623045 947.9799966430664,513.1000021362305 z" fill="#ffd037" id="svg_142"/><path d="M844.1599966430664,483.52000213623046 s-13.35,17.45 6.16,43.81 s35.59,48.6 29.09,65 c0,0 -29.43,-48.94 -53.39,-49.62 S817.7999966430664,512.9500021362305 844.1599966430664,483.52000213623046 z" fill="#fc6681" id="svg_143"/><path d="M844.1599966430664,483.52000213623046 a21.62,21.62 0 0 0 -2.73,5.47 c-23.37,27.46 -35.83,53.09 -13.36,53.73 c20.93,0.6000000000000001 46,38 52,47.47 a20.28,20.28 0 0 1 -0.7100000000000001,2.15 s-29.43,-48.94 -53.39,-49.62 S817.7999966430664,512.9500021362305 844.1599966430664,483.52000213623046 z" opacity="0.1" id="svg_144"/><path d="M819.3399966430665,505.76000213623047 c0,6.14 0.6900000000000002,11.12 1.54,11.12 s1.54,-5 1.54,-11.12 s-0.8600000000000001,-3.25 -1.71,-3.25 S819.3399966430665,499.6200021362305 819.3399966430665,505.76000213623047 z" fill="#ffd037" id="svg_145"/><path d="M810.8299966430664,513.1000021362305 c5.39,2.94 10.1,4.72 10.5,4 s-3.64,-3.74 -9,-6.68 s-3.27,-0.8 -3.67,-0.05000000000000001 S805.4399966430664,510.16000213623045 810.8299966430664,513.1000021362305 z" fill="#ffd037" id="svg_146"/><path d="M823.5899966430665,590.0600021362304 s37.32,-1.15 48.56,-9.16 s57.4,-17.57 60.19,-4.73 s56.08,63.88 13.95,64.22 s-97.89,-6.5600000000000005 -109.12,-13.4 S823.5899966430665,590.0600021362304 823.5899966430665,590.0600021362304 z" fill="#b27b40" id="svg_147" class="" fill-opacity="1"/><path d="M947.0499966430664,635.9300021362304 c-42.13,0.3400000000000001 -97.89,-6.5600000000000005 -109.12,-13.4 c-8.55,-5.21 -12,-23.89 -13.09,-32.51 l-1.25,0 s2.36,30.1 13.59,36.93 s67,13.74 109.12,13.4 c12.16,-0.1 16.36,-4.42 16.13,-10.83 C960.7399966430664,633.4400021362304 956.0999966430663,635.8500021362305 947.0499966430664,635.9300021362304 z" opacity="0.2" id="svg_148"/></g></svg>